<svg width="15" height="10" viewBox="0 0 15 10" fill="none" xmlns="http://www.w3.org/2000/svg">
<g clip-path="url(#clip0)">
<path d="M1.37501 5.30748L11.9822 5.30748L9.65179 7.63783C9.33037 7.95926 9.33037 8.44141 9.65179 8.76283C9.97322 9.08426 10.4554 9.08426 10.7768 8.76283L14.4732 5.06641C14.7947 4.74498 14.7947 4.26283 14.4732 3.94141L10.7768 0.244978C10.4554 -0.0764517 9.97322 -0.0764517 9.65179 0.244978C9.33037 0.566406 9.33037 1.04855 9.65179 1.36998L11.9822 3.70033L1.37501 3.70033C0.973222 3.70033 0.571436 4.02176 0.571436 4.50391C0.571436 4.98605 0.973222 5.30748 1.37501 5.30748Z" fill="#4089ED"/>
</g>
<defs>
<clipPath id="clip0">
<rect width="14.1429" height="9" fill="white" transform="translate(14.7143 9.00391) rotate(-180)"/>
</clipPath>
</defs>
</svg>
